<?xml version="1.0" standalone="no"?>
<!DOCTYPE svg PUBLIC "-//W3C//DTD SVG 20010904//EN"
 "http://www.w3.org/TR/2001/REC-SVG-20010904/DTD/svg10.dtd">
<svg version="1.0" xmlns="http://www.w3.org/2000/svg"
 width="512.000000pt" height="512.000000pt" viewBox="0 0 512.000000 512.000000"
 preserveAspectRatio="xMidYMid meet">

<g transform="translate(0.000000,512.000000) scale(0.100000,-0.100000)"
fill="hsl(215 16% 47%)" stroke="none">
<path d="M2391 4784 c-30 -8 -77 -27 -104 -42 -28 -15 -492 -406 -1031 -868
-712 -610 -990 -855 -1014 -891 -18 -27 -42 -74 -55 -104 l-22 -54 -3 -1095
c-3 -1208 -4 -1178 59 -1289 55 -97 138 -165 254 -212 60 -24 61 -24 530 -27
316 -2 491 1 536 8 163 28 304 143 366 300 16 40 18 98 23 515 5 447 6 472 25
504 11 19 33 43 48 55 28 21 39 21 493 24 460 3 466 2 503 -19 21 -12 48 -38
60 -59 20 -37 21 -48 21 -462 0 -241 4 -449 10 -479 34 -183 195 -344 379
-379 32 -6 239 -10 505 -10 367 0 463 3 515 15 189 45 333 201 361 390 13 93
13 2085 0 2180 -14 100 -64 195 -142 272 -114 111 -1922 1654 -1973 1684 -95
54 -236 72 -344 43z m204 -327 c89 -63 1917 -1641 1930 -1666 13 -26 15 -156
15 -1098 0 -1048 0 -1069 -20 -1101 -11 -18 -34 -41 -52 -52 -32 -19 -52 -20
-498 -20 -446 0 -466 1 -498 20 -18 11 -41 34 -52 52 -19 31 -20 52 -20 438 0
223 -5 439 -10 480 -21 162 -119 297 -267 368 l-78 37 -510 3 c-452 3 -517 1
-573 -14 -162 -43 -300 -194 -332 -363 -6 -31 -10 -232 -10 -480 0 -475 1
-470 -70 -519 l-33 -22 -467 0 -467 0 -33 23 c-18 12 -43 35 -54 50 l-21 28 0
1072 c0 1055 0 1073 20 1103 30 48 1931 1672 1968 1683 43 12 96 4 132 -22z"/>
</g>
</svg>
